<?xml version="1.0" encoding="UTF-8"?>
<svg width="409px" height="423px" viewBox="0 0 409 423" version="1.1" xmlns="http://www.w3.org/2000/svg" xmlns:xlink="http://www.w3.org/1999/xlink">
    <!-- Generator: sketchtool 53.2 (72643) - https://sketchapp.com -->
    <title>6F8C8DC0-6AD0-4AC7-8C47-67CC1DD360BC</title>
    <desc>Created with sketchtool.</desc>
    <defs>
        <path d="M118.779141,117.538929 L309.67974,74.6104537 L309.436376,64.9081631 L322.68887,78.1606565 C325.873033,81.3448202 327.204303,85.9380723 326.21635,90.3314473 L283.235987,281.462786 C282.122249,286.415521 278.254515,290.283255 273.30178,291.396993 L82.4916269,334.305129 C78.1102497,335.290385 73.5291656,333.969181 70.345342,330.802091 L56.3276454,316.858067 L109.002295,126.845908 C110.296212,122.178388 114.0536,118.601577 118.779141,117.538929 Z" id="path-1"></path>
        <filter x="-12.0%" y="-12.0%" width="133.7%" height="133.7%" filterUnits="objectBoundingBox" id="filter-2">
            <feOffset dx="13" dy="13" in="SourceAlpha" result="shadowOffsetOuter1"></feOffset>
            <feGaussianBlur stdDeviation="13" in="shadowOffsetOuter1" result="shadowBlurOuter1"></feGaussianBlur>
            <feColorMatrix values="0 0 0 0 0   0 0 0 0 0   0 0 0 0 0  0 0 0 0.2 0" type="matrix" in="shadowBlurOuter1"></feColorMatrix>
        </filter>
        <linearGradient x1="50%" y1="100%" x2="50%" y2="-2.48949813e-15%" id="linearGradient-3">
            <stop stop-color="#3367C0" offset="0%"></stop>
            <stop stop-color="#002F65" offset="100%"></stop>
        </linearGradient>
        <path d="M198.257342,70.2026777 L364.302217,175.279486 C370.23247,179.032279 372.134209,187.107874 368.549871,193.316832 C367.498824,195.137504 366.041163,196.663671 364.302217,197.764114 L198.257342,302.840923 C194.266804,305.366223 189.267845,305.366223 185.277306,302.840923 L19.2324311,197.764114 C13.3021789,194.011322 11.4004397,185.935727 14.9847778,179.726768 C16.0358242,177.906096 17.4934851,176.379929 19.2324311,175.279486 L185.277306,70.2026777 C189.267845,67.6773778 194.266804,67.6773778 198.257342,70.2026777 Z" id="path-4"></path>
        <filter x="-5.0%" y="-7.6%" width="111.8%" height="117.8%" filterUnits="objectBoundingBox" id="filter-5">
            <feOffset dx="3" dy="3" in="SourceAlpha" result="shadowOffsetOuter1"></feOffset>
            <feGaussianBlur stdDeviation="6.5" in="shadowOffsetOuter1" result="shadowBlurOuter1"></feGaussianBlur>
            <feColorMatrix values="0 0 0 0 0   0 0 0 0 0   0 0 0 0 0  0 0 0 0.1 0" type="matrix" in="shadowBlurOuter1"></feColorMatrix>
        </filter>
        <path d="M224.84587,140.363462 L273.075435,170.3778 C274.307356,171.144452 274.684531,172.764615 273.917879,173.996536 C273.706049,174.336922 273.419128,174.624314 273.07909,174.836702 L159.921982,245.514515 C158.657941,246.304033 157.05665,246.312943 155.783902,245.53754 L105.353371,214.813467 C104.733801,214.436003 104.537536,213.627747 104.915,213.008177 C105.022477,212.831764 105.170044,212.683185 105.345718,212.574504 L222.075499,140.359788 C222.924627,139.834475 223.998138,139.835899 224.84587,140.363462 Z" id="path-6"></path>
        <filter x="-10.6%" y="-16.9%" width="124.8%" height="139.4%" filterUnits="objectBoundingBox" id="filter-7">
            <feOffset dx="3" dy="3" in="SourceAlpha" result="shadowOffsetOuter1"></feOffset>
            <feGaussianBlur stdDeviation="6.5" in="shadowOffsetOuter1" result="shadowBlurOuter1"></feGaussianBlur>
            <feColorMatrix values="0 0 0 0 0   0 0 0 0 0   0 0 0 0 0  0 0 0 0.1 0" type="matrix" in="shadowBlurOuter1"></feColorMatrix>
        </filter>
        <path d="M315.429432,167.244973 L340.641008,181.280788 L227.721337,251.559934 L199.992014,237.525894 C199.344699,237.198282 199.085528,236.407948 199.413139,235.760633 C199.524702,235.5402 199.696166,235.355696 199.907844,235.228304 L312.796753,167.289428 C313.603024,166.804198 314.607238,166.787241 315.429432,167.244973 Z" id="path-8"></path>
        <filter x="-12.8%" y="-21.2%" width="129.7%" height="149.6%" filterUnits="objectBoundingBox" id="filter-9">
            <feOffset dx="3" dy="3" in="SourceAlpha" result="shadowOffsetOuter1"></feOffset>
            <feGaussianBlur stdDeviation="6.5" in="shadowOffsetOuter1" result="shadowBlurOuter1"></feGaussianBlur>
            <feColorMatrix values="0 0 0 0 0   0 0 0 0 0   0 0 0 0 0  0 0 0 0.1 0" type="matrix" in="shadowBlurOuter1"></feColorMatrix>
        </filter>
        <rect id="path-10" x="0.414621194" y="0.116609983" width="21.4267592" height="22.4070163" rx="1.26108372"></rect>
        <filter x="-9.3%" y="-4.5%" width="118.7%" height="117.9%" filterUnits="objectBoundingBox" id="filter-11">
            <feOffset dx="0" dy="1" in="SourceAlpha" result="shadowOffsetOuter1"></feOffset>
            <feGaussianBlur stdDeviation="0.5" in="shadowOffsetOuter1" result="shadowBlurOuter1"></feGaussianBlur>
            <feColorMatrix values="0 0 0 0 0   0 0 0 0 0.184313725   0 0 0 0 0.396078431  0 0 0 0.2 0" type="matrix" in="shadowBlurOuter1"></feColorMatrix>
        </filter>
        <linearGradient x1="50%" y1="0%" x2="50%" y2="100%" id="linearGradient-12">
            <stop stop-color="#0C5487" stop-opacity="0" offset="0%"></stop>
            <stop stop-color="#052A4F" offset="100%"></stop>
        </linearGradient>
        <rect id="path-13" x="-6.54836185e-11" y="-1.09139364e-11" width="64.9404282" height="67.7665702" rx="1.89162577"></rect>
        <filter x="-3.1%" y="-1.5%" width="106.2%" height="105.9%" filterUnits="objectBoundingBox" id="filter-14">
            <feOffset dx="0" dy="1" in="SourceAlpha" result="shadowOffsetOuter1"></feOffset>
            <feGaussianBlur stdDeviation="0.5" in="shadowOffsetOuter1" result="shadowBlurOuter1"></feGaussianBlur>
            <feColorMatrix values="0 0 0 0 0   0 0 0 0 0.184313725   0 0 0 0 0.396078431  0 0 0 0.2 0" type="matrix" in="shadowBlurOuter1"></feColorMatrix>
        </filter>
        <rect id="path-15" x="-5.63886715e-11" y="-1.31876732e-11" width="53.8729945" height="56.3376411" rx="1.57635474"></rect>
        <filter x="-3.7%" y="-1.8%" width="107.4%" height="107.1%" filterUnits="objectBoundingBox" id="filter-16">
            <feOffset dx="0" dy="1" in="SourceAlpha" result="shadowOffsetOuter1"></feOffset>
            <feGaussianBlur stdDeviation="0.5" in="shadowOffsetOuter1" result="shadowBlurOuter1"></feGaussianBlur>
            <feColorMatrix values="0 0 0 0 0   0 0 0 0 0.184313725   0 0 0 0 0.396078431  0 0 0 0.2 0" type="matrix" in="shadowBlurOuter1"></feColorMatrix>
        </filter>
        <rect id="path-17" x="-5.63886715e-11" y="-1.31876732e-11" width="27.2461122" height="28.1688206" rx="0.788177371"></rect>
        <filter x="-7.3%" y="-3.6%" width="114.7%" height="114.2%" filterUnits="objectBoundingBox" id="filter-18">
            <feOffset dx="0" dy="1" in="SourceAlpha" result="shadowOffsetOuter1"></feOffset>
            <feGaussianBlur stdDeviation="0.5" in="shadowOffsetOuter1" result="shadowBlurOuter1"></feGaussianBlur>
            <feColorMatrix values="0 0 0 0 0   0 0 0 0 0.184313725   0 0 0 0 0.396078431  0 0 0 0.2 0" type="matrix" in="shadowBlurOuter1"></feColorMatrix>
        </filter>
        <rect id="path-19" x="0.0005234437" y="0.176580831" width="32.4462353" height="33.9306248" rx="1.89162577"></rect>
        <filter x="-6.2%" y="-2.9%" width="112.3%" height="111.8%" filterUnits="objectBoundingBox" id="filter-20">
            <feOffset dx="0" dy="1" in="SourceAlpha" result="shadowOffsetOuter1"></feOffset>
            <feGaussianBlur stdDeviation="0.5" in="shadowOffsetOuter1" result="shadowBlurOuter1"></feGaussianBlur>
            <feColorMatrix values="0 0 0 0 0   0 0 0 0 0.184313725   0 0 0 0 0.396078431  0 0 0 0.2 0" type="matrix" in="shadowBlurOuter1"></feColorMatrix>
        </filter>
        <path d="M0.124384695,57.7968815 C0.124384695,56.9275719 0.729323308,55.8498425 1.46307072,55.3974022 L91.0901656,0.131912526 L106.769481,7.23560153 L108.050182,9.60178246 L108.050182,102.031729 L16.6226992,158.998043 L0.124384695,152.688227 L0.124384695,57.7968815 Z" id="path-21"></path>
        <linearGradient x1="46.8028685%" y1="26.8550966%" x2="53.382454%" y2="74.3327482%" id="linearGradient-23">
            <stop stop-color="#FFFFFF" offset="0%"></stop>
            <stop stop-color="#EDF1F5" offset="100%"></stop>
        </linearGradient>
        <path d="M1.25231989,69.0991349 L110.338647,2.10348449 C111.265971,1.53396656 112.4794,1.82402503 113.048918,2.75134821 C113.23781,3.05891293 113.338594,3.41245199 113.340273,3.77338593 L113.793045,101.109196 C113.796252,101.798692 113.438824,102.439709 112.850585,102.799416 L3.99787323,169.362664 C2.75997937,170.119634 1.14282269,169.729769 0.385852686,168.491875 C0.1335217,168.079231 3.02572999e-14,167.604939 3.01980663e-14,167.121259 L-4.4408921e-16,71.3378911 C4.31047699e-15,70.4247115 0.47417529,69.5770344 1.25231989,69.0991349 Z" id="path-24"></path>
        <polygon id="path-26" points="0 53.2420812 86.5462895 0.132713113 86.7781706 102.386213 0 155.830482"></polygon>
        <path d="M72.7637388,121.032511 L82.6831112,114.872528 C83.2994356,114.489788 84.1093378,114.679145 84.4920786,115.295469 C84.6212851,115.503529 84.6897534,115.743567 84.6897534,115.988482 L84.6897534,133.673242 C84.6897534,134.127513 84.45505,134.549543 84.0691379,134.789196 L74.1497656,140.949179 C73.5334412,141.33192 72.7235389,141.142563 72.3407982,140.526238 C72.2115917,140.318178 72.1431233,140.07814 72.1431233,139.833225 L72.1431233,122.148465 C72.1431233,121.694195 72.3778267,121.272165 72.7637388,121.032511 Z" id="path-28"></path>
        <filter x="-167.4%" y="-45.3%" width="323.2%" height="166.2%" filterUnits="objectBoundingBox" id="filter-29">
            <feOffset dx="-12" dy="-5" in="SourceAlpha" result="shadowOffsetOuter1"></feOffset>
            <feGaussianBlur stdDeviation="1" in="shadowOffsetOuter1" result="shadowBlurOuter1"></feGaussianBlur>
            <feColorMatrix values="0 0 0 0 0.294117647   0 0 0 0 0.333333333   0 0 0 0 0.384313725  0 0 0 0.4 0" type="matrix" in="shadowBlurOuter1"></feColorMatrix>
        </filter>
        <path d="M26.3412073,111.293106 L36.2605797,105.133123 C36.876904,104.750383 37.6868063,104.93974 38.069547,105.556064 C38.1987536,105.764124 38.2672219,106.004162 38.2672219,106.249077 L38.2672219,123.933837 C38.2672219,124.388108 38.0325185,124.810137 37.6466064,125.049791 L27.7272341,131.209774 C27.1109097,131.592515 26.3010074,131.403158 25.9182667,130.786833 C25.7890601,130.578773 25.7205918,130.338735 25.7205918,130.09382 L25.7205918,112.40906 C25.7205918,111.95479 25.9552952,111.53276 26.3412073,111.293106 Z" id="path-30"></path>
        <filter x="-95.6%" y="-34.8%" width="227.5%" height="145.2%" filterUnits="objectBoundingBox" id="filter-31">
            <feOffset dx="-6" dy="-5" in="SourceAlpha" result="shadowOffsetOuter1"></feOffset>
            <feGaussianBlur stdDeviation="1" in="shadowOffsetOuter1" result="shadowBlurOuter1"></feGaussianBlur>
            <feColorMatrix values="0 0 0 0 0.294117647   0 0 0 0 0.333333333   0 0 0 0 0.384313725  0 0 0 0.4 0" type="matrix" in="shadowBlurOuter1"></feColorMatrix>
        </filter>
        <path d="M108.521635,61.2974935 L118.441007,55.1375105 C119.057331,54.7547697 119.867234,54.9441267 120.249974,55.5604511 C120.379181,55.7685114 120.447649,56.0085494 120.447649,56.2534645 L120.447649,73.938224 C120.447649,74.3924948 120.212946,74.8145246 119.827034,75.054178 L109.907661,81.214161 C109.291337,81.5969018 108.481435,81.4075448 108.098694,80.7912204 C107.969488,80.5831601 107.901019,80.3431221 107.901019,80.098207 L107.901019,62.4134475 C107.901019,61.9591767 108.135723,61.5371469 108.521635,61.2974935 Z" id="path-32"></path>
        <filter x="-95.6%" y="-34.8%" width="227.5%" height="145.2%" filterUnits="objectBoundingBox" id="filter-33">
            <feOffset dx="-6" dy="-5" in="SourceAlpha" result="shadowOffsetOuter1"></feOffset>
            <feGaussianBlur stdDeviation="1" in="shadowOffsetOuter1" result="shadowBlurOuter1"></feGaussianBlur>
            <feColorMatrix values="0 0 0 0 0.294117647   0 0 0 0 0.333333333   0 0 0 0 0.384313725  0 0 0 0.4 0" type="matrix" in="shadowBlurOuter1"></feColorMatrix>
        </filter>
    </defs>
    <g id="Page-1" stroke="none" stroke-width="1" fill="none" fill-rule="evenodd">
        <g id="Platform" transform="translate(-395.000000, -3685.000000)">
            <g id="Icons-/-Illustrations-/-Islands-/-Sales-&amp;-CRM" transform="translate(370.000000, 3772.000000)">
                <ellipse id="Oval-Copy-3" fill="#E1C2F1" cx="325.833333" cy="40" rx="5.75" ry="6"></ellipse>
                <ellipse id="Oval-Copy-5" fill="#E1C2F1" cx="141.833333" cy="40" rx="5.75" ry="6"></ellipse>
                <g id="Product-island-/-CRM-&amp;-Sales" transform="translate(38.333333, -140.000000)" stroke-width="1">
                    <g id="Group" transform="translate(0.000000, 52.545156)">
                        <g id="Group-2-Copy-10" transform="translate(0.000000, 55.172414)">
                            <g id="Rectangle-26-Copy-16" transform="translate(191.432146, 199.766793) rotate(45.000000) translate(-191.432146, -199.766793) ">
                                <use fill="black" fill-opacity="1" filter="url(#filter-2)" xlink:href="#path-1"></use>
                                <use fill="#002F65" fill-rule="evenodd" xlink:href="#path-1"></use>
                            </g>
                            <g id="Rectangle-26-Copy-16">
                                <use fill="black" fill-opacity="1" filter="url(#filter-5)" xlink:href="#path-4"></use>
                                <use fill="url(#linearGradient-3)" fill-rule="evenodd" xlink:href="#path-4"></use>
                            </g>
                            <g id="Rectangle-26-Copy-16" opacity="0.3">
                                <use fill="black" fill-opacity="1" filter="url(#filter-7)" xlink:href="#path-6"></use>
                                <use fill="#052A4F" fill-rule="evenodd" xlink:href="#path-6"></use>
                            </g>
                            <g id="Rectangle-26-Copy-21" opacity="0.3">
                                <use fill="black" fill-opacity="1" filter="url(#filter-9)" xlink:href="#path-8"></use>
                                <use fill="#052A4F" fill-rule="evenodd" xlink:href="#path-8"></use>
                            </g>
                        </g>
                        <g id="Icons-/-Illustrations-/-Briefcase-/-Order" transform="translate(55.205173, 0.000000)">
                            <g id="Group-3" transform="translate(0.563787, 0.075575)">
                                <path d="M37.44515,156.099154 C37.2289554,155.720474 37.3849215,155.292595 37.7988521,155.141509 L156.172872,111.934648 L181.762544,195.032669 L87.5034268,243.779625 L37.44515,156.099154 Z" id="Rectangle-5" fill="#052A4F"></path>
                                <path d="M54.5739498,149.273392 C53.7208191,149.118029 53.0058822,149.701059 52.9776115,150.559888 L49.8369491,245.969398 C49.8084465,246.835273 50.4518664,247.782268 51.2644749,248.081044 L66.7880381,253.788668 L68.2649686,151.766655 L54.5739498,149.273392 Z" id="Rectangle-5-Copy-5" fill="#3367C0" transform="translate(59.050503, 201.518488) rotate(-27.000000) translate(-59.050503, -201.518488) "></path>
                                <path d="M30.9481304,158.948139 C30.9481304,158.948139 30.2696883,157.180816 34.0127911,155.726726 C82.0315319,134.696466 140.010973,116.159971 140.010973,116.159971 L156.172872,111.934648 L44.6857026,153.115996 L32.8910379,156.666597 L30.9481304,158.948139 Z" id="Rectangle-5-Copy-5" fill="#4A90E2"></path>
                                <g id="Group-21" transform="translate(95.687669, 15.313570) rotate(-20.000000) translate(-95.687669, -15.313570) translate(84.709368, 3.819317)">
                                    <g id="Rectangle">
                                        <use fill="black" fill-opacity="1" filter="url(#filter-11)" xlink:href="#path-10"></use>
                                        <use fill="#2EAA9B" fill-rule="evenodd" xlink:href="#path-10"></use>
                                    </g>
                                    <path d="M10.0305922,18.9829216 C9.84485511,18.9828819 9.75197254,18.9036768 9.75194166,18.7453039 L9.7516638,17.3199546 C8.57529212,17.129656 7.60009154,16.6384992 6.82603281,15.8464693 C6.73314576,15.7514257 6.73312415,15.6405663 6.82596797,15.5138878 L7.66156748,14.4212985 C7.6925113,14.3579559 7.75441655,14.326295 7.84728507,14.3263148 C7.87823507,14.2946469 7.94014958,14.3104971 8.03303045,14.3738661 L8.35812423,14.6590054 C8.5748545,14.8490991 8.89218604,15.031293 9.31012835,15.2055924 C9.72807067,15.3798919 10.1537287,15.4670865 10.5871151,15.467179 C11.0205016,15.4672715 11.3996858,15.3485746 11.7246794,15.1110846 C12.0496729,14.8735945 12.2121271,14.5489696 12.2120468,14.1372 C12.2119974,13.8838033 12.1036077,13.6541429 11.8868743,13.4482118 C11.6701409,13.2422807 11.4456812,13.0838623 11.2134882,12.9729517 C10.9812953,12.8620411 10.6330143,12.7115147 10.1686346,12.5213681 C9.51850553,12.2678326 9.00769154,12.0380863 8.63617731,11.8321222 C8.26466308,11.6261581 7.88538925,11.2855804 7.49834445,10.810379 C7.11129965,10.3351776 6.9177184,9.78083941 6.9175949,9.14734769 C6.91744671,8.38715763 7.18044058,7.72205747 7.7065844,7.15202725 C8.23272822,6.58199704 8.91368283,6.21789014 9.74946867,6.05969562 L9.74917228,4.5393231 C9.74914141,4.38095017 9.8419931,4.30178471 10.0277301,4.30182436 L11.1421469,4.30206224 C11.2969277,4.30209528 11.3743324,4.38129708 11.3743633,4.53967001 L11.3746504,6.01253089 C12.4581412,6.13946051 13.3094974,6.51973156 13.9287444,7.15335544 C13.9906814,7.28006699 13.9906999,7.37508933 13.9287999,7.43842528 L13.2789551,8.62607755 C13.2170612,8.7210881 13.1551591,8.76858605 13.0932467,8.76857283 C13.0313467,8.83190879 12.9694322,8.81605852 12.9075014,8.72102154 L12.6288509,8.48340386 C12.4430891,8.35666587 12.1721989,8.21407456 11.816172,8.05562563 C11.4601451,7.89717671 11.0964001,7.8179138 10.724926,7.8178345 C10.2296272,7.81772877 9.81948719,7.93641914 9.49449367,8.17390915 C9.16950015,8.41139916 9.00704288,8.72018705 9.00711697,9.10028208 C9.00716637,9.35367877 9.12329814,9.59917791 9.35551576,9.83678686 C9.58773338,10.0743958 9.80445577,10.2407312 10.0056894,10.3357979 C10.2069231,10.4308646 10.5706836,10.5893128 11.0969817,10.8111472 C11.7471108,11.0646827 12.2579232,11.2865105 12.6294344,11.4766373 C13.0009455,11.6667641 13.3647369,11.9835828 13.7208193,12.427103 C14.0769018,12.8706232 14.2550021,13.4091211 14.2551256,14.0426128 C14.2552861,14.8661521 13.9923031,15.5866819 13.4661685,16.204224 C12.9400339,16.8217661 12.243603,17.1937882 11.3768548,17.3203015 L11.3771327,18.7456508 C11.3771636,18.9040237 11.2997897,18.9831925 11.1450089,18.9831594 L10.0305922,18.9829216 Z" id="Path" fill="#FFFFFF"></path>
                                </g>
                                <g id="Group-20" transform="translate(58.969162, 28.899836)">
                                    <g id="Group-12-Copy-4" transform="translate(42.121520, 0.000000)">
                                        <polyline id="Path-6" stroke="#3367C0" stroke-width="12.9964147" stroke-linecap="round" stroke-linejoin="round" points="32.2271449 93.8360956 32.2271449 122.205148 32.2271449 135.298557"></polyline>
                                        <polyline id="Path-6-Copy" stroke="#3367C0" stroke-width="12.9964147" stroke-linecap="round" stroke-linejoin="round" points="17.4947358 93.8360956 17.4947358 122.205148 17.4947358 135.298557"></polyline>
                                        <path d="M24.8609403,0 L24.8609403,0 C33.7328277,-1.62973928e-15 41.0749632,6.89949361 41.6259225,15.7542568 L44.3141524,58.958246 C44.5370268,62.5401797 41.8139711,65.624586 38.2320374,65.8474604 C37.6070198,65.8863501 36.9796625,65.8346895 36.3694258,65.694081 L25.9132552,63.2848087 L13.2006599,65.9210792 C9.68656428,66.6498136 6.2470709,64.3918323 5.51833642,60.8777366 C5.40089575,60.3114155 5.35958696,59.7319502 5.39550472,59.1546964 L8.09595812,15.7542568 C8.64691741,6.89949361 15.9890529,1.62973928e-15 24.8609403,0 Z" id="Rectangle-16" fill="#3367C0"></path>
                                        <path d="M24.8609403,63.2848087 L24.8609403,63.2848087 C33.711976,63.2848087 41.0166384,70.2085658 41.4901966,79.0469239 L42.603455,99.8244689 C42.6674601,101.019042 41.7509534,102.039322 40.5563799,102.103327 C40.3871109,102.112396 40.2173624,102.101565 40.050619,102.071055 L8.86695508,96.3651406 C7.78623274,96.1673925 7.02472471,95.1918654 7.09521877,94.0954642 L8.06341521,79.0370068 C8.63298472,70.1784345 15.9840764,63.2848087 24.8609403,63.2848087 Z" id="Rectangle-13" fill="#4A90E2"></path>
                                        <path d="M24.8609403,39.2802261 L24.8609403,39.2802261 L25.2988627,39.2802261 C37.2617322,39.2802261 46.9595539,48.9780478 46.9595539,60.9409173 L46.9595539,80.5663364 C46.9595539,82.9589103 45.0199896,84.8984746 42.6274157,84.8984746 C42.5595004,84.8984746 42.4915946,84.8968776 42.4237544,84.8936847 L15.7490179,83.6382714 C13.791345,83.546136 12.1393627,82.1511715 11.7205929,80.2365948 L7.4842589,60.8684655 C5.38516237,51.2715893 11.4633137,41.7901301 21.0601898,39.6910336 C22.30867,39.4179572 23.5829444,39.2802261 24.8609403,39.2802261 Z" id="Rectangle-13" fill="#4A90E2"></path>
                                        <polyline id="Path-6-Copy" stroke="#4A90E2" stroke-width="12.9964147" stroke-linecap="round" stroke-linejoin="round" transform="translate(8.228727, 60.064628) rotate(30.000000) translate(-8.228727, -60.064628) " points="7.95403104 44.529705 8.32993029 65.7880202 8.50342225 75.5995503"></polyline>
                                        <path d="M19.5993656,39.2802261 L30.122515,39.2802261 L27.0161608,70.200829 C26.896581,71.3911243 25.8347173,72.2591108 24.644422,72.1395311 C23.6193836,72.0365534 22.8086975,71.2258673 22.7057199,70.200829 L19.5993656,39.2802261 Z" id="Rectangle-19" fill="#3367C0"></path>
                                        <path d="M11.1808462,13.0934087 C13.9870193,16.0030551 16.7931925,17.4578783 19.5993656,17.4578783 C22.4055388,17.4578783 28.7194284,16.7304667 38.5410345,15.2756435 L38.5410345,21.2356624 C38.5410345,28.7909698 32.4162477,34.9157565 24.8609403,34.9157565 L24.8609403,34.9157565 C17.3056329,34.9157565 11.1808462,28.7909698 11.1808462,21.2356624 L11.1808462,13.0934087 Z" id="Rectangle-16" fill="#E4EDF7"></path>
                                        <path d="M40.6456643,82.9249217 L46.9595539,82.9249217 L46.9595539,90.6791508 C46.9595539,92.4226833 45.5461416,93.8360956 43.8026091,93.8360956 L43.8026091,93.8360956 C42.0590767,93.8360956 40.6456643,92.4226833 40.6456643,90.6791508 L40.6456643,82.9249217 Z" id="Rectangle-14-Copy-3" fill="#E4EDF7"></path>
                                    </g>
                                    <g id="person-inactive" transform="translate(0.000000, 5.275775)">
                                        <path d="M27.623267,95.4428535 C30.1321718,105.777909 31.5133352,113.73148 31.7667571,119.303567 C32.020179,124.875654 30.6390156,132.106173 27.623267,140.995124" id="Path-6" stroke="#3367C0" stroke-width="12.9103458" fill="#6B7C93" stroke-linecap="round" stroke-linejoin="round"></path>
                                        <path d="M8.97756178,95.4428535 L8.97756178,140.995124" id="Path-6-Copy-2" stroke="#3367C0" stroke-width="12.9103458" fill="#6B7C93" stroke-linecap="round" stroke-linejoin="round"></path>
                                        <path d="M18.3004308,36.8756479 L18.3004308,36.8756479 C26.881884,36.8756479 33.8385263,43.8322902 33.8385263,52.4137434 C33.8385263,52.4137463 33.8385263,52.4137492 33.8385263,52.4137521 L33.8385041,92.7379312 C33.8385031,94.502688 32.7610729,96.0885778 31.1204342,96.7387095 C26.0019121,98.7670132 21.3832813,99.781165 17.2645419,99.781165 C13.2418583,99.781165 9.22023666,98.813765 5.19967709,96.8789649 L5.19967602,96.8789671 C3.70971274,96.1619572 2.7623267,94.6546737 2.7623267,93.0011642 L2.7623267,52.4137521 C2.7623267,43.8322941 9.71897288,36.8756479 18.3004308,36.8756479 Z" id="Rectangle-13" fill="#3367C0"></path>
                                        <path d="M18.3004144,41.2139595 L18.3004144,41.2139595 C26.8818633,41.2139595 33.8385021,48.1705983 33.8385021,56.7520472 L33.8385021,87.0631818 C33.8385021,88.1365966 33.0473842,89.0458282 31.9842789,89.1942404 L5.21155209,92.9317797 C4.03460095,93.0960851 2.94729776,92.2751734 2.78299245,91.0982223 C2.76923186,90.9996525 2.7623267,90.9002468 2.7623267,90.8007212 L2.7623267,56.7520472 C2.7623267,48.1705983 9.71896552,41.2139595 18.3004144,41.2139595 Z" id="Rectangle-13" fill="#3367C0"></path>
                                        <path d="M18.3004144,36.8756479 L18.3004144,36.8756479 C28.7404015,36.8756479 37.2036832,45.3389296 37.2036832,55.7789167 C37.2036832,56.6612552 37.1419066,57.542511 37.0188065,58.4162201 L36.4355084,62.5562075 L22.5029454,83.5088605 L4.83407173,86.7662304 L4.83407173,86.7662304 C3.8980856,86.9144278 3.01918123,86.2757988 2.87098387,85.3398127 C2.85338997,85.2286929 2.84676732,85.1161121 2.85121155,85.003696 C3.12604546,78.052559 3.09640745,73.227317 2.7623267,70.527971 C2.56081736,68.8997914 1.84413146,64.7774241 0.612268994,58.1608689 L0.61229774,58.1608636 C-1.20646032,48.3919865 5.23838453,38.9983522 15.0072616,37.1795941 C16.0933201,36.977393 17.1956934,36.8756479 18.3004144,36.8756479 Z" id="Rectangle-13" fill="#3367C0"></path>
                                        <polyline id="Path-6-Copy" stroke="#3367C0" stroke-width="12.9964147" stroke-linecap="round" stroke-linejoin="round" transform="translate(34.534048, 59.166227) rotate(150.000000) translate(-34.534048, -59.166227) " points="34.7653848 45.8269775 34.448818 64.0806877 34.3027102 72.505477"></polyline>
                                        <path d="M18.3004144,2.16915576 L18.3004144,2.16915576 C25.7376701,2.16915576 31.7667571,8.19824274 31.7667571,15.6354984 L31.7667571,21.2401495 C31.7667571,28.6774052 25.7376701,34.7064922 18.3004144,34.7064922 L18.3004144,34.7064922 C10.8631587,34.7064922 4.83407173,28.6774052 4.83407173,21.2401495 L4.83407173,15.6354984 C4.83407173,8.19824274 10.8631587,2.16915576 18.3004144,2.16915576 Z" id="Rectangle-16" fill="#E4EDF7"></path>
                                        <path d="M19.7361833,0 L27.623267,0 L27.623267,4.39060589 C27.623267,7.95569945 24.7331877,10.8457788 21.1680941,10.8457788 L8.97756178,10.8457788 L8.97756178,10.7586215 C8.97756178,4.81679893 13.7943607,1.0914951e-15 19.7361833,0 Z" id="Rectangle-16" fill="#3367C0"></path>
                                    </g>
                                </g>
                                <polygon id="Rectangle" fill="url(#linearGradient-12)" transform="translate(98.491047, 165.188834) rotate(-20.000000) translate(-98.491047, -165.188834) " points="50.9449784 138.79431 146.823593 137.354013 146.037115 191.583358 50.1585007 193.023655"></polygon>
                                <g id="Group-7" transform="translate(64.615145, 203.612479) rotate(-29.000000) translate(-64.615145, -203.612479) translate(31.993907, 169.458128)">
                                    <g id="Rectangle">
                                        <use fill="black" fill-opacity="1" filter="url(#filter-14)" xlink:href="#path-13"></use>
                                        <use fill="#2EAA9B" fill-rule="evenodd" xlink:href="#path-13"></use>
                                    </g>
                                    <path d="M32.3272593,54.8088608 C31.782683,54.8088608 31.510399,54.5772034 31.510399,54.1138817 L31.510399,49.9440068 C28.0614161,49.3880207 25.2024337,47.9517448 22.933366,45.6351361 C22.6610778,45.3571431 22.6610778,45.0328227 22.933366,44.6621653 L25.3839468,41.4652613 C25.4747095,41.2799326 25.6562322,41.1872696 25.9285204,41.1872696 C26.0192831,41.0946053 26.2008058,41.1409367 26.4730939,41.3262654 L27.4260976,42.1602404 C28.0614365,42.7162265 28.9917403,43.2490385 30.2170369,43.7586924 C31.4423334,44.2683464 32.690302,44.5231695 33.9609799,44.5231695 C35.2316578,44.5231695 36.3434843,44.1756834 37.2964927,43.4807008 C38.2495012,42.7857182 38.7259982,41.8359228 38.7259982,40.6312863 C38.7259982,39.8899715 38.4083335,39.2181651 37.7729946,38.6158468 C37.1376556,38.0135285 36.4796358,37.5502137 35.7989155,37.2258885 C35.1181952,36.9015633 34.0971301,36.4614142 32.7356894,35.9054281 C30.8296726,35.1641133 29.3321103,34.4923069 28.2429579,33.8899886 C27.1538054,33.2876703 26.0419789,32.2915435 24.907445,30.9015783 C23.7729112,29.5116131 23.2056527,27.8900113 23.2056527,26.0367243 C23.2056527,23.8127799 23.9771242,21.8668578 25.5200902,20.1988995 C27.0630563,18.5309412 29.0598059,17.4653172 31.510399,17.0019954 L31.510399,12.5541289 C31.510399,12.0908072 31.782683,11.8591498 32.3272593,11.8591498 L35.5947005,11.8591498 C36.048514,11.8591498 36.2754174,12.0908072 36.2754174,12.5541289 L36.2754174,16.8629996 C39.4521121,17.233657 41.9480492,18.3456125 43.7633033,20.1988995 C43.9448288,20.5695569 43.9448288,20.8475458 43.7633033,21.0328745 L41.857296,24.5077702 C41.6757706,24.7857632 41.4942479,24.9247577 41.3127225,24.9247577 C41.1311971,25.1100864 40.9496744,25.0637549 40.7681489,24.7857618 L39.9512887,24.0907827 C39.4067124,23.7201253 38.6125506,23.303142 37.5687795,22.8398202 C36.5250083,22.3764985 35.4585625,22.1448411 34.36941,22.1448411 C32.9172067,22.1448411 31.7146188,22.4923272 30.7616104,23.1873098 C29.808602,23.8822924 29.3321049,24.7857563 29.3321049,25.8977285 C29.3321049,26.6390433 29.67246,27.3571812 30.3531803,28.0521638 C31.0339006,28.7471464 31.66923,29.233627 32.2591876,29.51162 C32.8491452,29.7896131 33.915591,30.2529279 35.4585571,30.9015783 C37.3645739,31.6428931 38.8621362,32.2915338 39.9512887,32.8475199 C41.0404412,33.403506 42.106887,34.3301356 43.1506581,35.6274365 C44.1944293,36.9247374 44.716307,38.5000077 44.716307,40.3532946 C44.716307,42.7625677 43.9448356,44.87065 42.4018695,46.6776048 C40.8589035,48.4845596 38.8167732,49.5733494 36.2754174,49.9440068 L36.2754174,54.1138817 C36.2754174,54.5772034 36.048514,54.8088608 35.5947005,54.8088608 L32.3272593,54.8088608 Z" id="Path" fill="#FFFFFF"></path>
                                </g>
                                <polygon id="Rectangle" fill="#01687D" opacity="0.5" points="84.7532978 162.814409 91.6539444 182.518842 99.809254 227.182225 87.2626238 230.466297"></polygon>
                                <g id="Group-7-Copy-4" transform="translate(188.001710, 81.556385) rotate(20.000000) translate(-188.001710, -81.556385) translate(160.712789, 53.313364)">
                                    <g id="Rectangle">
                                        <use fill="black" fill-opacity="1" filter="url(#filter-16)" xlink:href="#path-15"></use>
                                        <use fill="#9933C0" fill-rule="evenodd" xlink:href="#path-15"></use>
                                    </g>
                                    <text id="" font-family="FontAwesome" font-size="32.8407225" font-weight="normal" line-spacing="28.2430213" letter-spacing="-0.59817037" fill="#FFFFFF">
                                        <tspan x="15.6564849" y="39.7416274"></tspan>
                                    </text>
                                </g>
                                <g id="Group-7-Copy-5" transform="translate(18.819945, 87.684729) rotate(-30.000000) translate(-18.819945, -87.684729) translate(5.018652, 73.563218)">
                                    <g id="Rectangle">
                                        <use fill="black" fill-opacity="1" filter="url(#filter-18)" xlink:href="#path-17"></use>
                                        <use fill="#9933C0" fill-rule="evenodd" xlink:href="#path-17"></use>
                                    </g>
                                    <text id="" font-family="FontAwesome" font-size="16.4203612" font-weight="normal" line-spacing="14.1215107" letter-spacing="-0.299085185" fill="#FFFFFF">
                                        <tspan x="7.98401578" y="19.8708137"></tspan>
                                    </text>
                                </g>
                                <g id="Group-7" transform="translate(38.710430, 105.093459) rotate(-10.000000) translate(-38.710430, -105.093459) translate(22.399811, 88.016283)">
                                    <g id="Group-21" transform="translate(-0.000000, 0.000000)">
                                        <g id="Rectangle">
                                            <use fill="black" fill-opacity="1" filter="url(#filter-20)" xlink:href="#path-19"></use>
                                            <use fill="#2EAA9B" fill-rule="evenodd" xlink:href="#path-19"></use>
                                        </g>
                                        <path d="M14.5618509,28.7455669 C14.2805919,28.7455069 14.1399412,28.6255677 14.1398944,28.3857459 L14.1394737,26.2273599 C12.3581108,25.9391934 10.8813785,25.1954416 9.70923246,23.9960821 C9.56857493,23.852159 9.56854221,23.6842862 9.70913428,23.4924587 L10.9744707,21.8379663 C11.0213285,21.7420475 11.1150707,21.6941039 11.2557002,21.6941339 C11.3025673,21.6461795 11.3963236,21.6701814 11.5369717,21.7661401 L12.0292566,22.1979224 C12.3574482,22.4857787 12.8379788,22.7616723 13.4708629,23.0256114 C14.1037469,23.2895505 14.7483148,23.4215882 15.4045857,23.4217282 C16.0608566,23.4218683 16.6350499,23.2421272 17.127183,22.8824995 C17.619316,22.5228717 17.8653181,22.0312968 17.8651965,21.40776 C17.8651217,21.024045 17.7009887,20.6762735 17.3727924,20.364435 C17.0445962,20.0525965 16.7047,19.8127057 16.3530935,19.6447554 C16.0014871,19.476805 15.4740901,19.2488651 14.7708866,18.9609288 C13.7864054,18.5770037 13.0128871,18.2291021 12.4503084,17.9172136 C11.8877297,17.6053251 11.3134008,17.0895932 10.7273044,16.3700025 C10.141208,15.6504119 9.84807064,14.8109854 9.84788363,13.8516979 C9.84765922,12.700553 10.2459071,11.6934013 11.0426392,10.8302127 C11.8393712,9.96702409 12.8705311,9.41566221 14.1361496,9.17611051 L14.1357008,6.87383212 C14.1356541,6.63401025 14.276258,6.51413113 14.557517,6.51419117 L16.2450623,6.5145514 C16.4794448,6.51460143 16.5966576,6.63453558 16.5967044,6.87435744 L16.5971392,9.10468964 C18.2378538,9.29689735 19.5270502,9.87273636 20.4647671,10.8322239 C20.5585575,11.0241014 20.5585855,11.1679924 20.4648512,11.2639011 L19.4808005,13.062346 C19.3870755,13.2062191 19.293338,13.2781446 19.199585,13.2781246 C19.1058507,13.3740333 19.0120944,13.3500315 18.9183134,13.2061183 L18.496357,12.8462973 C18.2150606,12.6543797 17.8048554,12.4384558 17.2657289,12.1985188 C16.7266025,11.9585819 16.1757886,11.8385552 15.6132707,11.8384351 C14.8632468,11.838275 14.2421777,12.0180061 13.7500446,12.3776339 C13.2579116,12.7372616 13.0119048,13.2048547 13.0120171,13.7804272 C13.0120919,14.1641421 13.1879485,14.535898 13.5395924,14.8957058 C13.8912362,15.2555137 14.2194158,15.5073929 14.5241411,15.651351 C14.8288663,15.7953092 15.3797036,16.035245 16.1766694,16.3711658 C17.1611506,16.7550909 17.9346666,17.0910016 18.4972406,17.3789079 C19.0598146,17.6668142 19.6106986,18.1465683 20.1499092,18.8181846 C20.6891198,19.4898009 20.9588145,20.3052405 20.9590015,21.264528 C20.9592446,22.5116017 20.5610131,23.6026898 19.7642951,24.5378249 C18.967577,25.4729601 17.9129816,26.0363079 16.6004772,26.2278852 L16.600898,28.3862712 C16.6009448,28.6260931 16.4837787,28.7459772 16.2493962,28.7459271 L14.5618509,28.7455669 Z" id="Path" fill="#FFFFFF"></path>
                                    </g>
                                </g>
                                <g id="Rectangle-5-Copy-5-+-Rectangle-5-Copy-5-+-Rectangle-5-Mask" transform="translate(89.275671, 91.628714)">
                                    <g id="Oval-+-Oval-Copy-6-Mask">
                                        <mask id="mask-22" fill="white">
                                            <use xlink:href="#path-21"></use>
                                        </mask>
                                        <use id="Mask" fill="#164881" xlink:href="#path-21"></use>
                                        <ellipse id="Oval" fill="#002F65" opacity="0.6" mask="url(#mask-22)" transform="translate(16.277082, 64.968689) rotate(30.000000) translate(-16.277082, -64.968689) " cx="16.2770815" cy="64.9686895" rx="11.1115983" ry="15.5882836"></ellipse>
                                        <ellipse id="Oval-Copy-7" fill="#002F65" opacity="0.6" mask="url(#mask-22)" transform="translate(109.749476, 101.093484) rotate(30.000000) translate(-109.749476, -101.093484) " cx="109.749476" cy="101.093484" rx="11.1115983" ry="15.5882836"></ellipse>
                                        <ellipse id="Oval-Copy-6" fill="#002F65" opacity="0.6" mask="url(#mask-22)" transform="translate(106.223349, 12.831307) rotate(-60.000000) translate(-106.223349, -12.831307) " cx="106.223349" cy="12.8313068" rx="11.3694764" ry="15.2345262"></ellipse>
                                        <ellipse id="Oval-Copy-8" fill="#002F65" opacity="0.6" mask="url(#mask-22)" transform="translate(16.277082, 153.389599) rotate(-60.000000) translate(-16.277082, -153.389599) " cx="16.2770815" cy="153.389599" rx="11.3694764" ry="15.2345262"></ellipse>
                                    </g>
                                    <path d="M3.11800416,54.7320465 C3.11800416,54.7320465 0.0652218461,56.145883 0.0652218461,59.6805283 L0.0652218461,152.611952 L15.5498173,158.645323 C16.36467,158.96282 17.0252386,158.515462 17.0252386,157.641869 L17.0252386,62.8423539 C17.0252386,61.9706645 16.3519309,61.0614196 15.5157076,60.8097967 L2.66618423,56.9433241 L3.11800416,54.7320465 Z" id="Rectangle-5-Copy-5" fill="#3367C0"></path>
                                    <path d="M1.00404547,57.3702154 C0.230556395,56.9797555 0.209272746,56.2851933 0.944008117,55.8266677 L90.0237652,0.234745716 C90.3927005,0.00450458024 91.0261397,-0.0547285259 91.4309857,0.0995466032 L103.805603,4.81515651 C105.027346,5.28072762 106.495434,6.59738352 107.085246,7.757121 L107.99102,9.53813176 C107.99102,9.53813176 107.143019,6.71040475 104.653957,7.87561642 C106.905272,6.82170164 33.7274363,51.4043122 19.2561331,62.4010151 C17.3041082,63.8843534 17.3152526,70.7411885 17.3152526,70.7411885 C17.3152526,70.7411885 16.5635364,65.5750572 14.4904456,64.1781969 L1.00404547,57.3702154 Z" id="Rectangle-5-Copy-5" fill="#4A90E2"></path>
                                </g>
                            </g>
                            <polyline id="Path-5-Copy-2" stroke="#002F65" stroke-width="7.8817734" stroke-linecap="round" stroke-linejoin="round" points="125.101935 132.894999 125.101935 120.500718 154.732082 102.472673 154.732082 114.866954"></polyline>
                        </g>
                        <g id="Group-16" transform="translate(195.100099, 102.463054)">
                            <g id="Group-7-Copy">
                                <g id="Group-10">
                                    <mask id="mask-25" fill="white">
                                        <use xlink:href="#path-24"></use>
                                    </mask>
                                    <use id="Rectangle" fill="url(#linearGradient-23)" xlink:href="#path-24"></use>
                                    <g id="Rectangle-26-Copy-16-+-Rectangle-26-Copy-16-+-Rectangle-26-Copy-16-+-Rectangle-26-Copy-16-Mask" mask="url(#mask-25)">
                                        <g transform="translate(26.975255, 0.000000)">
                                            <mask id="mask-27" fill="white">
                                                <use xlink:href="#path-26"></use>
                                            </mask>
                                            <use id="Mask" stroke="none" fill="#E4EDF7" fill-rule="evenodd" xlink:href="#path-26"></use>
                                            <polygon id="Rectangle" stroke="none" fill="#002F65" fill-rule="evenodd" mask="url(#mask-27)" points="36.3852274 30.5168027 48.9318575 22.7252786 48.9318575 45.4505572 36.3852274 53.2420812"></polygon>
                                            <polygon id="Rectangle" stroke="none" fill="#B04AE2" fill-rule="evenodd" mask="url(#mask-27)" points="23.8385973 81.8110029 36.3852274 74.0194788 36.3852274 94.7968764 23.8385973 102.5884"></polygon>
                                            <polygon id="Rectangle-Copy-12" stroke="none" fill="#4A90E2" fill-rule="evenodd" mask="url(#mask-27)" points="61.4784877 37.0097394 74.0251178 29.2182153 74.0251178 49.9956129 61.4784877 57.787137"></polygon>
                                            <polygon id="Rectangle-Copy-17" stroke="none" fill="#002F65" fill-rule="evenodd" mask="url(#mask-27)" points="48.9318575 45.4505572 61.4784877 37.6590331 61.4784877 58.4364306 48.9318575 66.2279547"></polygon>
                                            <polygon id="Rectangle-Copy-9" stroke="none" fill="#2EAA9B" fill-rule="evenodd" mask="url(#mask-27)" points="48.9318575 86.3560586 61.4784877 78.5645345 61.4784877 99.3419321 48.9318575 107.133456"></polygon>
                                            <path d="M11.2919671,40.9055014 L11.2919671,157.778363" id="Path-12" stroke="#CAD2DD" stroke-width="0.65681445" fill="none" mask="url(#mask-27)"></path>
                                            <path d="M23.8385973,27.919628 L23.8385973,144.792489" id="Path-12" stroke="#CAD2DD" stroke-width="0.65681445" fill="none" mask="url(#mask-27)"></path>
                                            <path d="M36.3852274,14.9337545 L36.3852274,131.806616" id="Path-12" stroke="#CAD2DD" stroke-width="0.65681445" fill="none" mask="url(#mask-27)"></path>
                                            <path d="M48.9318575,8.44081776 L48.9318575,125.313679" id="Path-12" stroke="#CAD2DD" stroke-width="0.65681445" fill="none" mask="url(#mask-27)"></path>
                                            <path d="M61.4784877,1.94788102 L61.4784877,118.820742" id="Path-12" stroke="#CAD2DD" stroke-width="0.65681445" fill="none" mask="url(#mask-27)"></path>
                                            <path d="M74.0251178,-4.54505572 L74.0251178,112.327806" id="Path-12" stroke="#CAD2DD" stroke-width="0.65681445" fill="none" mask="url(#mask-27)"></path>
                                            <path d="M126.461191,-3.44490353 C69.7894245,32.3556911 27.2855998,59.2061371 -1.05028335,77.1064344 C-5.88705093,80.1619093 127.948549,-4.38449496 126.461191,-3.44490353 Z" id="Rectangle-26-Copy-16" stroke="#CAD2DD" stroke-width="0.65681445" fill="none" mask="url(#mask-27)"></path>
                                            <path d="M126.461191,17.0289142 C69.7894245,52.8295088 27.2855998,79.6799548 -1.05028335,97.5802521 C-5.88705093,100.635727 127.948549,16.0893227 126.461191,17.0289142 Z" id="Rectangle-26-Copy-16" stroke="#CAD2DD" stroke-width="0.65681445" fill="none" mask="url(#mask-27)"></path>
                                            <path d="M126.461191,37.5027319 C69.7894245,73.3033265 27.2855998,100.153772 -1.05028335,118.05407 C-5.88705093,121.109545 127.948549,36.5631404 126.461191,37.5027319 Z" id="Rectangle-26-Copy-16" stroke="#CAD2DD" stroke-width="0.65681445" fill="none" mask="url(#mask-27)"></path>
                                            <path d="M126.461191,57.9765495 C69.7894245,93.7771442 27.2855998,120.62759 -1.05028335,138.527888 C-5.88705093,141.583362 127.948549,57.0369581 126.461191,57.9765495 Z" id="Rectangle-26-Copy-16" stroke="#CAD2DD" stroke-width="0.65681445" fill="none" mask="url(#mask-27)"></path>
                                        </g>
                                    </g>
                                    <g id="Group-8" mask="url(#mask-25)">
                                        <g transform="translate(4.391321, 62.981486)" id="Rectangle">
                                            <path d="M0.627777072,11.1121424 L17.6488837,0.692405451 C18.0003437,0.477253722 18.4596732,0.58775339 18.674825,0.939213366 C18.7429548,1.05050642 18.7807062,1.1777208 18.7843121,1.30816163 L18.7989182,1.83652993 C18.811924,2.30700957 18.5722309,2.74849471 18.1705818,2.99384808 L1.10818232,13.4166709 C0.764861388,13.6263936 0.316530903,13.5180909 0.106808157,13.17477 C0.0369579284,13.0604236 1.64094258e-17,12.9290265 0,12.7950334 L-2.22044605e-16,12.2325121 C-2.78043433e-16,11.775247 0.237784146,11.3508827 0.627777072,11.1121424 Z" fill="#4A90E2"></path>
                                            <path d="M0.626159945,15.656944 L8.10541018,11.0635431 C8.45597448,10.8482431 8.91469812,10.9578965 9.12999809,11.3084608 C9.19836571,11.4197811 9.23625525,11.5471236 9.2398652,11.6777118 L9.25448244,12.2064844 C9.26748227,12.6767476 9.02801412,13.1180611 8.62666289,13.3634867 L1.10787008,17.9612157 C0.764831299,18.1709834 0.31669315,18.0629458 0.106925513,17.719907 C0.0370008475,17.6055573 1.9498471e-16,17.4741238 0,17.3400891 L4.4408921e-16,16.7763221 C3.88173087e-16,16.3197323 0.237087645,15.8958937 0.626159945,15.656944 Z" fill="#A4B3C7"></path>
                                        </g>
                                    </g>
                                </g>
                            </g>
                            <g id="Rectangle-Copy-17">
                                <use fill="black" fill-opacity="1" filter="url(#filter-29)" xlink:href="#path-28"></use>
                                <use fill="#4A90E2" fill-rule="evenodd" xlink:href="#path-28"></use>
                            </g>
                            <g id="Rectangle-Copy-34">
                                <use fill="black" fill-opacity="1" filter="url(#filter-31)" xlink:href="#path-30"></use>
                                <use fill="#002F65" fill-rule="evenodd" xlink:href="#path-30"></use>
                            </g>
                            <g id="Rectangle-Copy-33">
                                <use fill="black" fill-opacity="1" filter="url(#filter-33)" xlink:href="#path-32"></use>
                                <use fill="#002F65" fill-rule="evenodd" xlink:href="#path-32"></use>
                            </g>
                        </g>
                    </g>
                </g>
            </g>
        </g>
    </g>
</svg>