<?xml version="1.0" encoding="UTF-8"?>
<svg width="140px" height="26px" viewBox="0 0 140 26" version="1.1" xmlns="http://www.w3.org/2000/svg" xmlns:xlink="http://www.w3.org/1999/xlink">
    <!-- Generator: sketchtool 53.2 (72643) - https://sketchapp.com -->
    <title>0C65D371-9495-470E-94C0-FDC33698CA11</title>
    <desc>Created with sketchtool.</desc>
    <g id="Page-1" stroke="none" stroke-width="1" fill="none" fill-rule="evenodd">
        <g id="Platform" transform="translate(-370.000000, -17.000000)" fill="#002F65">
            <g id="Group">
                <g id="Group-3" transform="translate(370.000000, 0.000000)">
                    <path d="M127.768904,23.6153426 C127.896019,21.2318318 130.153011,20.0244608 132.343558,20.0244608 C134.459715,20.0244608 137.316165,20.5156429 137.291609,23.1220311 L139.833886,23.0467922 C139.777551,21.9508599 139.758051,20.8925471 139.817274,19.7966148 C139.851941,19.1152061 139.927054,18.4359268 140,17.7559378 C137.274998,17.6792793 134.65833,17 131.928994,17 C127.391896,17 123.875322,19.5318591 123.627594,24.1824734 C123.212307,31.9654381 133.832813,30.3045045 135.551016,34.156593 C135.78791,34.7237237 135.874579,35.2894349 135.840633,35.9353535 C135.672352,39.0698335 133.278856,40.015288 130.509797,40.015288 C127.625179,40.015288 125.352297,39.4105378 125.294518,36.1603604 L122.879356,36.0907999 L122.071171,42.5812176 C124.833008,42.5840568 127.976187,42.9247611 130.738024,42.9247611 C135.852911,42.9247611 139.513934,40.5824187 139.798496,35.2532351 C140.320674,25.4672127 127.433064,29.9268905 127.768904,23.6153426 L127.768904,23.6153426 Z M102.758536,40.6448812 L102.480474,42.5840568 L119.908792,42.5840568 L120.712642,36.0950587 L118.360314,36.16178 C118.214422,38.8838656 117.024175,39.7867321 114.830739,39.7867321 L110.411366,39.7867321 C109.179951,39.7867321 108.194818,39.5241059 108.269931,38.1272181 L108.656329,30.8730548 L117.24879,30.8730548 L117.602687,27.8478842 L108.817388,27.8478842 L109.113505,22.2915643 C109.192229,20.8173082 109.488346,20.3254163 111.067158,20.3254163 L116.215991,20.3254163 C116.830615,20.3254163 117.368682,20.3644554 117.725467,20.8563472 C118.121254,21.3468195 118.244034,21.9508599 118.209366,22.5939394 L120.592751,22.5939394 C120.454803,20.8563472 120.432414,19.1152061 120.409302,17.3769042 L103.685166,17.3769042 L103.459829,19.4190008 C104.956305,19.5318591 105.279145,19.9485121 105.201866,21.4206388 L104.257901,38.3891346 C104.180621,39.847775 104.161843,40.4404586 102.758536,40.6448812 L102.758536,40.6448812 Z M99.6254684,36.6870325 C99.40013,39.445318 97.6927602,39.7491127 95.3079317,39.7491127 C94.3473549,39.7491127 93.8786232,39.7491127 92.9209357,39.7100737 C91.998638,39.6724542 91.0770627,39.6369642 90.8625581,38.6148512 C90.7693893,38.1974884 90.7910568,37.8220038 90.8120018,37.40819 L91.7003541,20.7399399 C91.7696886,19.4566203 92.7020976,19.2656839 93.8179549,19.2656839 L94.0339038,17.3754846 L86.1528462,17.3754846 L85.8552841,19.3047229 C87.2008132,19.3047229 87.7930483,19.756866 87.7215463,21.1182637 L86.8043045,38.3124761 C86.722692,39.8349986 86.5305766,40.4156156 85.2204372,40.6583675 L84.9589873,42.5840568 L101.271448,42.5840568 C101.570455,40.5795795 101.793626,38.5779416 102.129467,36.6132132 L99.6254684,36.6870325 L99.6254684,36.6870325 Z M69.1528153,31.5509146 L72.8073383,23.5763036 C73.1576235,22.8210756 73.3504606,22.0644281 73.4689079,21.2708709 C73.5454652,21.9884794 73.6241892,22.7075075 73.8538604,23.4236964 L76.3065799,31.5509146 L69.1528153,31.5509146 Z M77.6976093,40.7321867 L77.4462707,42.5840568 L83.7925737,42.5840568 L84.0605239,40.7108926 C83.8705753,40.6974065 83.6900154,40.6583675 83.5542349,40.5447993 C83.2949517,40.3559924 82.840664,39.5241059 82.7417174,39.1848211 L76.4040821,19.6447174 C76.1715211,18.9278187 75.9808507,18.1711712 75.9071819,17.3769042 L71.7933161,17.3769042 C71.7044808,18.2847393 71.4336421,19.040677 71.0443561,19.8718537 L61.9456053,39.1060333 C61.5534302,39.9379197 61.2161452,40.5447993 60.2822919,40.7321867 L60.1443444,42.5840568 L66.4090343,42.5840568 L66.7037073,40.6931477 C66.0522489,40.6569479 65.5640161,40.4312312 65.6037393,39.7100737 C65.6174617,39.4467376 65.7474646,39.1848211 65.8348553,38.9562653 L68.0384025,34.384439 L77.00065,34.384439 L78.5187938,39.0698335 C78.6199071,39.3345891 78.7202979,39.5993448 78.7015196,39.9379197 C78.6719083,40.5057603 78.2392881,40.6931477 77.6976093,40.7321867 L77.6976093,40.7321867 Z M51.8443888,42.9247611 C49.0753295,42.9247611 46.4131613,42.3569206 43.6455464,42.3569206 C43.8094944,41.4483756 43.905552,36.0851215 43.905552,36.0851215 L46.3979943,36.1603604 C46.4557734,39.4105378 48.7293776,40.015288 51.6147172,40.015288 C54.3823321,40.015288 56.7787168,39.0698335 56.9462759,35.9353535 C56.9802211,35.2894349 56.8942748,34.7237237 56.6559364,34.156593 C54.9391774,30.3045045 44.3143386,31.9654381 44.7303475,24.1824734 C44.9773528,19.5318591 48.4982615,17 53.0346365,17 C55.764695,17 58.3799178,17.6792793 61.1049206,17.7559378 C61.0319746,18.4359268 60.9568618,19.1152061 60.9200277,19.7966148 C60.8608042,20.8925471 60.8824714,21.9508599 60.9388059,23.0467922 L58.3965292,23.1220311 C58.420363,20.5156429 55.563913,20.0244608 53.4484787,20.0244608 C51.258654,20.0244608 49.0016612,21.2318318 48.8752696,23.6153426 C48.5379847,29.9268905 61.4255941,25.4672127 60.9034163,35.2532351 C60.6195769,40.5824187 56.9563873,42.9247611 51.8443888,42.9247611 L51.8443888,42.9247611 Z M35.0299729,20.212558 L32.2623581,20.212558 C30.6481568,20.212558 30.4040404,21.1963418 30.3339834,22.5179907 L29.9851426,29.0580945 C30.8669948,29.0957139 31.7134574,29.0957139 32.5613645,29.0957139 L33.6743328,29.0957139 C37.0977395,29.0957139 38.8751664,28.1502593 39.0680039,24.5217581 C39.226174,21.5725362 38.0684269,20.212558 35.0299729,20.212558 Z M39.0882266,31.399727 C37.0457383,32.1925744 32.1280218,32.1187551 29.8219169,32.1187551 L29.4636869,38.8419874 C29.3885743,40.2410046 29.9822537,40.6186186 31.3227268,40.7321867 L31.0699436,42.5840568 L23.1506072,42.5840568 L23.444558,40.7321867 C23.5189485,40.7321867 23.5926167,40.7705159 23.6713406,40.7705159 C25.1317052,40.7705159 25.4632124,39.5603058 25.5246026,38.3891346 L26.422344,21.5725362 C26.498179,20.1373191 26.3927323,19.2671035 24.7041406,19.2671035 L25.0342032,17.3769042 C26.3385645,17.4159432 27.6024804,17.4911821 28.9104529,17.4911821 C31.3321159,17.4911821 33.763168,17.3016653 36.1862755,17.3016653 C37.2624096,17.3016653 38.4136566,17.3407043 39.4320117,17.7176085 C42.261739,18.7759214 43.4599313,21.4972973 43.3046502,24.40819 C43.158036,27.1671854 41.9533435,30.2661753 39.0882266,31.399727 L39.0882266,31.399727 Z M23.0689944,19.2671035 C22.60604,19.2671035 22.0239164,19.3799618 21.7010762,19.6837565 C21.3385128,19.9861316 21.1211193,21.1573028 21.1001744,21.5725362 L20.4747166,33.2877969 C20.1042086,40.2410046 17.1892573,43 10.0744937,43 C7.7315546,43 5.3640594,42.6600054 3.51946431,41.222659 C1.12235739,39.2955501 1.12669081,36.3129675 1.28052744,33.4389844 L1.90959648,21.6484848 C1.99409829,20.0613705 1.84748404,19.2309036 0,19.2671035 L0.330062628,17.3769042 L8.32812293,17.3769042 L8.07533975,19.2309036 C6.5001393,19.2309036 5.95846103,19.9861316 5.87901488,21.4596779 L5.20372263,34.1196833 C4.96682866,38.5779416 6.03862941,40.1274365 10.689118,40.1274365 C15.4190526,40.1274365 16.2842934,37.6339066 16.5009647,33.5525525 L17.1582011,21.2318318 C17.2333137,19.834944 16.7551924,19.3799618 15.3786073,19.2671035 L15.7491153,17.3769042 L23.4005015,17.3769042 L23.0689944,19.2671035 L23.0689944,19.2671035 Z" id="Shape"></path>
                </g>
            </g>
        </g>
    </g>
</svg>